# AST/ASF file generated using VICON BodyLanguage
# -----------------------------------------------
:version 1.10
:name VICON
:units
  mass 1.0
  length 0.45
  angle deg
:documentation
   .ast/.asf automatically generated from VICON data using
   VICON BodyBuilder and BodyLanguage model FoxedUp or BRILLIANT.MOD
:root
   order TX TY TZ RX RY RZ
   axis XYZ
   position 0 0 0  
   orientation 0 0 0 
:bonedata
  begin
     id 1 
     name lhipjoint
     direction 0.602128 -0.715006 0.355257 
     length 2.21237 
     axis 0 0 0  XYZ
  end
  begin
     id 2 
     name lfemur
     direction 0.34202 -0.939693 0  
     length 6.71649  
     axis 0 0 20  XYZ
    dof rx ry rz
    limits (-160.0 20.0)
           (-70.0 70.0)
           (-60.0 70.0)
  end
  begin
     id 3 
     name ltibia
     direction 0.34202 -0.939693 0   
     length 6.97123   
     axis 0 0 20   XYZ
    dof rx
    limits (-10.0 170.0)
  end
  begin
     id 4 
     name lfoot
     direction 0.0655697 -0.180151 0.981451   
     length 1.80924   
     axis -90 7.62852e-016 20   XYZ
    dof rx rz
    limits (-45.0 90.0)
           (-70.0 20.0)
  end
  begin
     id 5 
     name ltoes
     direction 1.53545e-011 -4.21827e-011 1   
     length 0.916331   
     axis -90 7.62852e-016 20   XYZ
    dof rx
    limits (-90.0 20.0)
  end
  begin
     id 6 
     name rhipjoint
     direction -0.625414 -0.698792 0.347201   
     length 2.2637  
     axis 0 0 0  XYZ 
  end
  begin
     id 7 
     name rfemur
     direction -0.34202 -0.939693 0   
     length 7.07595   
     axis 0 0 -20   XYZ
    dof rx ry rz
    limits (-160.0 20.0)
           (-70.0 70.0)
           (-70.0 60.0)
  end
  begin
     id 8 
     name rtibia
     direction -0.34202 -0.939693 0   
     length 7.22924   
     axis 0 0 -20   XYZ
    dof rx
    limits (-10.0 170.0)
 end
 begin
     id 9 
     name rfoot
     direction -0.0766747 -0.210662 0.974547   
     length 1.98482  
     axis -90 -7.62852e-016 -20   XYZ
    dof rx rz
    limits (-45.0 90.0)
           (-20.0 70.0)
  end
  begin
     id 10 
     name rtoes
     direction -1.53532e-011 -4.21867e-011 1   
     length 0.999842   
     axis -90 -7.62852e-016 -20   XYZ
    dof rx
    limits (-90.0 20.0)
  end
  begin
     id 11 
     name lowerback
     direction -0.0224668 0.997354 -0.0691422   
     length 2.09945   
     axis 0 0 0   XYZ
    dof rx ry rz
    limits (-20.0 45.0)
           (-30.0 30.0)
           (-30.0 30.0)
  end
  begin
     id 12 
     name upperback
     direction 0.0134698 0.998451 -0.0539888   
     length 2.09758   
     axis 0 0 0   XYZ
    dof rx ry rz
    limits (-20.0 45.0)
           (-30.0 30.0)
           (-30.0 30.0)
  end
  begin
     id 13 
     name thorax
     direction 0.0241905 0.99948 -0.0213333   
     length 2.10428   
     axis 0 0 0   XYZ
    dof rx ry rz
    limits (-20.0 45.0)
           (-30.0 30.0)
           (-30.0 30.0)
  end
  begin
     id 14 
     name lowerneck
     direction -0.00866847 0.995978 0.0891737   
     length 1.3959   
     axis 0 0 0   XYZ
    dof rx ry rz
    limits (-20.0 45.0)
           (-30.0 30.0)
           (-30.0 30.0)
  end
  begin
     id 15 
     name upperneck
     direction 0.0680679 0.992203 0.104404   
     length 1.39452   
     axis 0 0 0   XYZ
    dof rx ry rz
    limits (-20.0 45.0)
           (-30.0 30.0)
           (-30.0 30.0)
  end
  begin
     id 16
     name head
     direction 0.0242216 0.999358 0.0264054  
     length 1.40433  
     axis 0 0 0   XYZ
    dof rx ry rz
    limits (-20.0 45.0)
           (-30.0 30.0)
           (-30.0 30.0)
  end
  begin
     id 17 
     name lclavicle
     direction 0.929368 0.362991 -0.0671771  
     length 3.04887  
     axis 0 0 0   XYZ
    dof ry rz
    limits (-20.0 10.0)
           (0.0 20.0)
  end
  begin
     id 18 
     name lhumerus
     direction 1 -4.48967e-011 -7.13741e-028   
     length 4.77195   
     axis -180 -30 -90   XYZ
    dof rx ry rz
    limits (-60.0 90.0)
           (-90.0 90.0)
           (-90.0 90.0)
  end
  begin
     id 19
     name lradius
     direction 1 -4.48977e-011 3.60404e-027   
     length 2.98444   
     axis -180 -30 -90   XYZ
    dof rx
    limits (-10.0 170.0)
  end
  begin
     id 20
     name lwrist
     direction 1 -4.48997e-011 7.54877e-027   
     length 1.49222   
     axis -7.18178e-015 90 90   XYZ
    dof ry
    limits (-180.0 0.0)
 end
  begin
     id 21 
     name lhand
     direction 1 -4.489e-011 1.51105e-026   
     length 0.992285   
     axis -9.63605e-015 90 90   XYZ
    dof rx rz
    limits (-90.0 90.0)
           (-45.0 45.0)
  end
  begin
     id 22 
     name lfingers
     direction 1 -4.48998e-011 3.01948e-026   
     length 0.800006   
     axis -1.92718e-014 90 90   XYZ
    dof rx
    limits (0.0 90.0)
  end
  begin
     id 23
     name lthumb
     direction 0.707107 -6.34881e-011 0.707107   
     length 1.14865   
     axis -90 45 -3.53137e-014   XYZ
    dof rx rz
    limits (-45.0 45.0)
           (-45.0 45.0)
  end
  begin
     id 24 
     name rclavicle
     direction -0.945672 0.324529 0.0196374   
     length 3.4236  
     axis 0 0 0   XYZ 
    dof ry rz
    limits (-10.0 20.0)
           (-20.0 0.0)
  end
  begin
     id 25 
     name rhumerus
     direction -1 -4.4896e-011 1.02757e-029  
     length 4.62052   
     axis -180 30 90   XYZ
    dof rx ry rz
    limits (-90.0 60.0)
           (-90.0 90.0)
           (-90.0 90.0)
  end
  begin
     id 26 
     name rradius
     direction -1 -4.48982e-011 3.85962e-027   
     length 2.95332   
     axis -180 30 90   XYZ
    dof rx
    limits (-10.0 170.0)
  end
  begin
     id 27 
     name rwrist
     direction -1 -4.48961e-011 7.55118e-027   
     length 1.47666   
     axis -7.18178e-015 -90 -90   XYZ
    dof ry
    limits (-180.0 0.0)
  end
  begin
     id 28
     name rhand
     direction -1 -4.48984e-011 1.50994e-026   
     length 0.990956   
     axis -9.63605e-015 -90 -90   XYZ
    dof rx rz
    limits (-90.0 90.0)
           (-45.0 45.0)
  end
  begin
     id 29
     name rfingers
     direction -1 -4.4892e-011 3.02158e-026   
     length 0.798934   
     axis -1.92718e-014 -90 -90   XYZ
    dof rx
    limits (0.0 90.0)
  end
  begin
     id 30
     name rthumb
     direction -0.707107 -6.34916e-011 0.707107   
     length 1.14711   
     axis -90 -45 3.53137e-014   XYZ
    dof rx rz
    limits (-45.0 45.0)
           (-45.0 45.0)
  end
:hierarchy
  begin
    root lhipjoint rhipjoint lowerback
    lhipjoint lfemur
    lfemur ltibia
    ltibia lfoot
    lfoot ltoes
    rhipjoint rfemur
    rfemur rtibia
    rtibia rfoot
    rfoot rtoes
    lowerback upperback
    upperback thorax
    thorax lowerneck lclavicle rclavicle
    lowerneck upperneck
    upperneck head
    lclavicle lhumerus
    lhumerus lradius
    lradius lwrist
    lwrist lhand lthumb
    lhand lfingers
    rclavicle rhumerus
    rhumerus rradius
    rradius rwrist
    rwrist rhand rthumb
    rhand rfingers
  end

#!OML:ASF H:\ManfredObstacles\Project 1\Capture day 1\Session 1\Male.ASF
:FULLY-SPECIFIED
:DEGREES
411
root -4.83308 15.9547 13.2403 -173.168 -3.14807 -180.254
lowerback -6.68246 -2.51822 -4.92711
upperback 4.66292 -2.99379 0.171228
thorax 8.97356 -1.81344 2.50217
lowerneck -0.852964 -4.21447 -5.34789
upperneck 14.7716 -5.85029 9.7474
head 4.99341 -2.26619 3.67417
rclavicle 1.47101e-014 1.82882e-014
rhumerus -41.8945 -20.3659 -73.123
rradius 30.62
rwrist 31.9086
rhand 7.49423 -5.11862
rfingers 7.12502
rthumb 32.746 -32.1721
lclavicle 1.47101e-014 1.82882e-014
lhumerus -30.2631 11.1486 79.7853
lradius 23.4178
lwrist -22.4435
lhand -14.6378 9.29276
lfingers 7.12502
lthumb 11.5141 38.9565
rfemur -41.3323 -3.81347 18.5408
rtibia 51.0385
rfoot -23.4061 3.82712
rtoes 10.3564
lfemur -16.16 -0.28496 -23.2536
ltibia 33.7314
lfoot -14.4254 -19.2418
ltoes 10.8456
412
root -4.84396 15.9573 13.1532 -173.367 -3.88797 -180.316
lowerback -6.70042 -2.74609 -4.80125
upperback 4.75317 -3.3233 0.277239
thorax 9.11065 -1.97528 2.49001
lowerneck -0.903024 -4.24532 -5.36293
upperneck 14.8911 -5.86836 9.51913
head 5.03499 -2.28553 3.60321
rclavicle 1.63997e-014 -7.15625e-015
rhumerus -42.2221 -21.289 -72.3447
rradius 30.2839
rwrist 32.3363
rhand 7.50307 -5.33636
rfingers 7.12502
rthumb 32.7544 -32.3881
lclavicle 1.63997e-014 -7.15625e-015
lhumerus -29.9047 10.7482 80.1641
lradius 23.5375
lwrist -22.2855
lhand -14.8817 9.17517
lfingers 7.12502
lthumb 11.2789 38.8519
rfemur -41.5351 -4.17049 17.9957
rtibia 49.3411
rfoot -22.0442 3.72709
rtoes 8.87336
lfemur -15.3886 -0.506156 -23.2827
ltibia 33.2518
lfoot -14.0303 -19.7058
ltoes 11.8585
413
root -4.84914 15.9618 13.0625 -173.543 -4.62781 -180.376
lowerback -6.74979 -2.95709 -4.71181
upperback 4.82118 -3.62366 0.37674
thorax 9.24163 -2.12356 2.49414
lowerneck -0.972825 -4.28423 -5.47779
upperneck 15.0279 -5.90742 9.43858
head 5.09356 -2.30951 3.59445
rclavicle -1.64494e-014 1.59028e-015
rhumerus -42.5846 -22.0589 -71.604
rradius 29.9015
rwrist 32.4698
rhand 7.30381 -5.35679
rfingers 7.12502
rthumb 32.5648 -32.4478
lclavicle -1.64494e-014 1.59028e-015
lhumerus -29.4538 10.6242 80.4572
lradius 23.6029
lwrist -22.3428
lhand -14.8621 9.01837
lfingers 7.12502
lthumb 11.2978 38.6941
rfemur -41.6899 -4.44625 17.442
rtibia 47.6375
rfoot -20.9727 3.65102
rtoes 7.95679
lfemur -14.6215 -0.687166 -23.2785
ltibia 32.7384
lfoot -13.6502 -20.1752
ltoes 12.5715
414
root -4.85026 15.9676 12.9712 -173.726 -5.44808 -180.601
lowerback -6.74935 -3.16587 -4.85663
upperback 4.84532 -3.89729 0.467084
thorax 9.31118 -2.27104 2.62655
lowerneck -0.812119 -4.3608 -5.61095
upperneck 15.0617 -5.98608 9.3011
head 5.08348 -2.36467 3.57204
rclavicle 2.33572e-015 1.17283e-014
rhumerus -43.0694 -22.9649 -70.646
rradius 29.4142
rwrist 32.8372
rhand 7.2381 -5.24773
rfingers 7.12502
rthumb 32.5023 -32.3516
lclavicle 2.33572e-015 1.17283e-014
lhumerus -29.06 10.2273 80.9149
lradius 23.9032
lwrist -21.9882
lhand -14.4275 9.23826
lfingers 7.12502
lthumb 11.7169 38.8906
rfemur -41.7117 -4.67866 16.6438
rtibia 45.9692
rfoot -20.1092 3.62537
rtoes 8.88997
lfemur -13.7941 -0.89161 -23.4243
ltibia 32.176
lfoot -13.2229 -20.6987
ltoes 13.6312
415
root -4.84781 15.9698 12.8771 -173.963 -6.30482 -180.899
lowerback -6.67017 -3.27196 -4.97954
upperback 4.81329 -4.02753 0.43266
thorax 9.24881 -2.33874 2.64304
lowerneck -0.470981 -4.51112 -5.64676
upperneck 15.1323 -6.16575 9.23888
head 5.06113 -2.45362 3.55623
rclavicle -6.16729e-014 -6.95746e-015
rhumerus -43.9076 -23.9754 -69.7254
rradius 29.0547
rwrist 33.1833
rhand 7.28082 -5.22678
rfingers 7.12502
rthumb 32.543 -32.3223
lclavicle -6.16729e-014 -6.95746e-015
lhumerus -28.7527 9.44935 81.3178
lradius 24.1131
lwrist -21.8049
lhand -14.0919 9.53949
lfingers 7.12502
lthumb 12.0405 39.1731
rfemur -41.552 -4.88721 15.7586
rtibia 44.3543
rfoot -19.28 3.58167
rtoes 11.3658
lfemur -12.8554 -1.19074 -23.6302
ltibia 31.5713
lfoot -12.8584 -21.086
ltoes 14.7276
